<svg width="24" height="24" viewBox="0 0 24 24" fill="none" xmlns="http://www.w3.org/2000/svg">
<path fill-rule="evenodd" clip-rule="evenodd" d="M10.7142 3.91556C10.7142 3.20547 11.2899 2.62984 11.9999 2.62984C12.71 2.62984 13.2856 3.20547 13.2856 3.91556C13.2856 4.62563 12.71 5.20127 11.9999 5.20127C11.2899 5.20127 10.7142 4.62563 10.7142 3.91556ZM15.8571 3.91556C15.8571 5.59497 14.7837 7.02371 13.2856 7.55322V9.04761H14.5714C15.2814 9.04761 15.8571 9.62325 15.8571 10.3333C15.8571 11.0434 15.2814 11.619 14.5714 11.619H13.2856V21.2399C14.9689 20.9707 16.5371 20.1777 17.7579 18.9569C18.9784 17.7364 19.7715 16.1681 20.0406 14.4849H18.8571C18.147 14.4849 17.5714 13.9092 17.5714 13.1992C17.5714 12.4891 18.147 11.9134 18.8571 11.9134H21.4285C21.7695 11.9134 22.0966 12.0489 22.3376 12.29C22.5788 12.5311 22.7142 12.8581 22.7142 13.1992C22.7142 16.0408 21.5854 18.766 19.576 20.7753C17.5667 22.7846 14.8415 23.9135 11.9999 23.9135C9.15833 23.9135 6.43311 22.7846 4.42378 20.7753C2.41447 18.766 1.28564 16.0408 1.28564 13.1992C1.28564 12.8581 1.4211 12.5311 1.66222 12.29C1.90334 12.0489 2.23037 11.9134 2.57136 11.9134H5.14279C5.85286 11.9134 6.4285 12.4891 6.4285 13.1992C6.4285 13.9092 5.85286 14.4849 5.14279 14.4849H3.95918C4.22832 16.1681 5.02142 17.7364 6.24206 18.9569C7.46271 20.1777 9.03099 20.9707 10.7142 21.2399V11.619H9.4285C8.71843 11.619 8.14279 11.0434 8.14279 10.3333C8.14279 9.62325 8.71843 9.04761 9.4285 9.04761H10.7142V7.55322C9.21612 7.02371 8.14279 5.59497 8.14279 3.91556C8.14279 1.78532 9.86969 0.0584106 11.9999 0.0584106C14.1302 0.0584106 15.8571 1.78532 15.8571 3.91556Z" fill="#1A1A1A"/>
</svg>
