<svg width="16" height="16" viewBox="0 0 16 16" fill="none" xmlns="http://www.w3.org/2000/svg">
<path fill-rule="evenodd" clip-rule="evenodd" d="M7.74293 3.94029C7.74293 3.58309 8.0325 3.29353 8.3897 3.29353C8.74689 3.29353 9.03646 3.58309 9.03646 3.94029C9.03646 4.29749 8.74689 4.58706 8.3897 4.58706C8.0325 4.58706 7.74293 4.29749 7.74293 3.94029ZM10.33 3.94029C10.33 4.7851 9.79006 5.50381 9.03646 5.77018V6.52191H9.68322C10.0404 6.52191 10.33 6.81148 10.33 7.16868C10.33 7.52588 10.0404 7.81544 9.68322 7.81544H9.03646V12.6551C9.88318 12.5197 10.6721 12.1208 11.2862 11.5067C11.9002 10.8927 12.2991 10.1038 12.4345 9.25706H11.8391C11.4819 9.25706 11.1923 8.96749 11.1923 8.61029C11.1923 8.25309 11.4819 7.96353 11.8391 7.96353H13.1326C13.3041 7.96353 13.4687 8.03167 13.5899 8.15296C13.7113 8.27425 13.7794 8.43876 13.7794 8.61029C13.7794 10.0397 13.2115 11.4106 12.2008 12.4214C11.19 13.4321 9.81913 14 8.3897 14C6.96026 14 5.58937 13.4321 4.5786 12.4214C3.56784 11.4106 3 10.0397 3 8.61029C3 8.43876 3.06814 8.27425 3.18943 8.15296C3.31072 8.03167 3.47523 7.96353 3.64676 7.96353H4.94029C5.29748 7.96353 5.58705 8.25309 5.58705 8.61029C5.58705 8.96749 5.29748 9.25706 4.94029 9.25706H4.34489C4.48028 10.1038 4.87924 10.8927 5.49326 11.5067C6.1073 12.1208 6.89621 12.5197 7.74293 12.6551V7.81544H7.09617C6.73897 7.81544 6.44941 7.52588 6.44941 7.16868C6.44941 6.81148 6.73897 6.52191 7.09617 6.52191H7.74293V5.77018C6.98933 5.50381 6.44941 4.7851 6.44941 3.94029C6.44941 2.8687 7.3181 2 8.3897 2C9.46129 2 10.33 2.8687 10.33 3.94029Z" fill="#1A1A1A"/>
</svg>
