<svg width="20" height="20" viewBox="0 0 20 20" fill="none" xmlns="http://www.w3.org/2000/svg">
<rect width="20" height="20" rx="10" fill="#EAF0F6"/>
<path d="M9.66386 13.0954L13.3333 9.42595C12.8339 9.21812 12.2424 8.87667 11.683 8.31726C11.1235 7.75775 10.782 7.16615 10.5741 6.66669L6.90463 10.3362C6.61829 10.6226 6.47509 10.7657 6.35196 10.9236C6.2067 11.1098 6.08217 11.3113 5.98056 11.5245C5.89442 11.7052 5.8304 11.8974 5.70233 12.2815L5.02702 14.3075C4.96399 14.4965 5.0132 14.7049 5.15412 14.8459C5.29504 14.9868 5.50348 15.036 5.69255 14.973L7.71849 14.2977C8.10268 14.1696 8.29478 14.1056 8.47552 14.0195C8.68872 13.9179 8.89022 13.7933 9.07647 13.6481C9.23429 13.5249 9.37753 13.3817 9.66386 13.0954Z" fill="#A1B0CA"/>
<path d="M14.3685 8.68028C15.2104 7.83836 15.2104 6.47335 14.3685 5.63144C13.5265 4.78952 12.1615 4.78952 11.3195 5.63144L10.8333 6.11774C10.8399 6.13785 10.8468 6.15823 10.854 6.17888C11.0322 6.69265 11.3686 7.36615 12.0012 7.99881C12.6339 8.63147 13.3074 8.96779 13.8212 9.14603C13.8418 9.15316 13.8621 9.16004 13.8821 9.16667L14.3685 8.68028Z" fill="#A1B0CA"/>
</svg>
