<svg width="20" height="20" viewBox="0 0 20 20" fill="none" xmlns="http://www.w3.org/2000/svg">
<path d="M10 7.07692C10.1938 7.07692 10.3797 6.99993 10.5167 6.86289C10.6538 6.72584 10.7308 6.53997 10.7308 6.34615C10.7308 6.15234 10.6538 5.96647 10.5167 5.82942C10.3797 5.69238 10.1938 5.61538 10 5.61538C9.80619 5.61538 9.62031 5.69238 9.48327 5.82942C9.34622 5.96647 9.26923 6.15234 9.26923 6.34615C9.26923 6.53997 9.34622 6.72584 9.48327 6.86289C9.62031 6.99993 9.80619 7.07692 10 7.07692Z" fill="#A1B0CA"/>
<path d="M8.98277 8.59497C10.0994 8.03667 11.3573 9.0461 11.0543 10.2572L10.3634 13.0205L10.4044 13.001C10.5761 12.9255 10.7702 12.919 10.9466 12.9827C11.123 13.0464 11.2682 13.1754 11.3521 13.3432C11.436 13.511 11.4521 13.7045 11.3972 13.8839C11.3423 14.0632 11.2206 14.2146 11.0572 14.3067L11.0182 14.3281C9.90062 14.8864 8.64272 13.877 8.94574 12.6658L9.63754 9.90256L9.59662 9.92205C9.51042 9.96995 9.41542 9.99992 9.31734 10.0101C9.21926 10.0204 9.12013 10.0106 9.02591 9.9815C8.93169 9.95239 8.84434 9.90452 8.76912 9.84076C8.69389 9.777 8.63235 9.69867 8.5882 9.6105C8.54405 9.52232 8.5182 9.42613 8.51221 9.3277C8.50621 9.22927 8.52021 9.13064 8.55334 9.03777C8.58647 8.94489 8.63806 8.85968 8.705 8.78726C8.77193 8.71485 8.85283 8.65673 8.94282 8.61641L8.98277 8.59497Z" fill="#A1B0CA"/>
<path fill-rule="evenodd" clip-rule="evenodd" d="M0.5 10C0.5 4.75308 4.75308 0.5 10 0.5C15.2469 0.5 19.5 4.75308 19.5 10C19.5 15.2469 15.2469 19.5 10 19.5C4.75308 19.5 0.5 15.2469 0.5 10ZM11.0543 10.2572C11.3573 9.0461 10.0994 8.03667 8.98277 8.59497L8.94282 8.61641C8.85283 8.65673 8.77193 8.71485 8.705 8.78726C8.63806 8.85968 8.58647 8.94489 8.55334 9.03777C8.52021 9.13064 8.50621 9.22927 8.51221 9.3277C8.5182 9.42613 8.54405 9.52232 8.5882 9.6105C8.63235 9.69867 8.69389 9.777 8.76912 9.84076C8.84434 9.90452 8.93169 9.95239 9.02591 9.9815C9.12013 10.0106 9.21926 10.0204 9.31734 10.0101C9.41542 9.99992 9.51042 9.96995 9.59662 9.92205L9.63754 9.90256L8.94574 12.6658C8.64272 13.877 9.90062 14.8864 11.0182 14.3281L11.0572 14.3067C11.2206 14.2146 11.3423 14.0632 11.3972 13.8839C11.4521 13.7045 11.436 13.511 11.3521 13.3432C11.2682 13.1754 11.123 13.0464 10.9466 12.9827C10.7702 12.919 10.5761 12.9255 10.4044 13.001L10.3634 13.0205L11.0543 10.2572ZM10.5167 6.86289C10.3797 6.99993 10.1938 7.07692 10 7.07692C9.80619 7.07692 9.62031 6.99993 9.48327 6.86289C9.34622 6.72584 9.26923 6.53997 9.26923 6.34615C9.26923 6.15234 9.34622 5.96647 9.48327 5.82942C9.62031 5.69238 9.80619 5.61538 10 5.61538C10.1938 5.61538 10.3797 5.69238 10.5167 5.82942C10.6538 5.96647 10.7308 6.15234 10.7308 6.34615C10.7308 6.53997 10.6538 6.72584 10.5167 6.86289Z" fill="#EAF0F6"/>
</svg>
