<svg width="16" height="16" viewBox="0 0 16 16" fill="none" xmlns="http://www.w3.org/2000/svg">
<path fill-rule="evenodd" clip-rule="evenodd" d="M8 2.75C5.51472 2.75 3.5 5.00145 3.5 7.53126C3.5 10.0412 4.93624 12.7695 7.17712 13.8169C7.69946 14.061 8.30054 14.061 8.82288 13.8169C11.0638 12.7695 12.5 10.0412 12.5 7.53126C12.5 5.00145 10.4853 2.75 8 2.75ZM8 8.37501C8.62134 8.37501 9.125 7.87134 9.125 7.25001C9.125 6.62868 8.62134 6.125 8 6.125C7.37866 6.125 6.875 6.62868 6.875 7.25001C6.875 7.87134 7.37866 8.37501 8 8.37501Z" fill="#1A1A1A"/>
</svg>
