<svg width="24" height="24" viewBox="0 0 24 24" fill="none" xmlns="http://www.w3.org/2000/svg">
<path d="M8.71655 19.4175C9.47354 20.3798 10.6627 20.9999 12 20.9999C13.3372 20.9999 14.5264 20.3798 15.2834 19.4175C13.1037 19.7129 10.8962 19.7129 8.71655 19.4175Z" fill="#1A1A1A"/>
<path d="M18.0742 9.29997V9.93366C18.0742 10.6942 18.2912 11.4377 18.698 12.0704L19.6946 13.6211C20.6051 15.0374 19.9101 16.9625 18.3266 17.4105C14.1845 18.5821 9.8154 18.5821 5.67324 17.4105C4.08985 16.9625 3.39484 15.0374 4.30523 13.6211L5.30193 12.0704C5.70866 11.4377 5.9257 10.6942 5.9257 9.93366V9.29997C5.9257 5.82056 8.64523 2.99994 11.9999 2.99994C15.3546 2.99994 18.0742 5.82056 18.0742 9.29997Z" fill="#1A1A1A"/>
</svg>
