<svg width="32" height="32" viewBox="0 0 32 32" fill="none" xmlns="http://www.w3.org/2000/svg">
<rect width="32" height="32" rx="8" fill="white"/>
<path d="M8.9999 9C8.9999 8.59334 8.75717 8.24338 8.40869 8.0871C8.55261 7.97374 8.72702 7.89615 8.91949 7.86865L19.7171 6.32614C20.9219 6.15402 21.9999 7.08894 21.9999 8.30604V9.12602C21.6803 9.04375 21.3452 9 20.9999 9H8.9999Z" fill="#15CDCA"/>
<path d="M13.75 18C13.75 16.7574 14.7574 15.75 16 15.75C17.2426 15.75 18.25 16.7574 18.25 18C18.25 19.2426 17.2426 20.25 16 20.25C14.7574 20.25 13.75 19.2426 13.75 18Z" fill="#15CDCA"/>
<path fill-rule="evenodd" clip-rule="evenodd" d="M22 10.1707C23.1652 10.5825 24 11.6938 24 13V23C24 24.6569 22.6569 26 21 26H11C9.34315 26 8 24.6569 8 23V9C8 9.18214 8.0487 9.35291 8.13378 9.5C8.30669 9.7989 8.62986 10 9 10H21C21.3506 10 21.6872 10.0602 22 10.1707ZM16 14.25C13.9289 14.25 12.25 15.9289 12.25 18C12.25 20.0711 13.9289 21.75 16 21.75C18.0711 21.75 19.75 20.0711 19.75 18C19.75 15.9289 18.0711 14.25 16 14.25Z" fill="url(#paint0_linear_1107_1062)"/>
<defs>
<linearGradient id="paint0_linear_1107_1062" x1="24.3938" y1="26.5484" x2="4.52439" y2="14.5873" gradientUnits="userSpaceOnUse">
<stop stop-color="#15CDCA"/>
<stop offset="1" stop-color="#81ECEA"/>
</linearGradient>
</defs>
</svg>
