<svg width="20" height="20" viewBox="0 0 20 20" fill="none" xmlns="http://www.w3.org/2000/svg">
<path d="M8.18611 5.81911L8.63608 6.62542C9.04217 7.35307 8.87917 8.30762 8.23956 8.94721C8.23949 8.94729 7.46384 9.72306 8.87036 11.1296C10.2765 12.5357 11.0522 11.761 11.0528 11.7604C11.6924 11.1208 12.6469 10.9578 13.3746 11.3639L14.1809 11.8139C15.2797 12.4271 15.4094 13.968 14.4436 14.9338C13.8633 15.5141 13.1524 15.9657 12.3665 15.9954C11.0435 16.0456 8.79673 15.7108 6.54296 13.4571C4.28921 11.2033 3.95439 8.95652 4.00454 7.63353C4.03434 6.84763 4.48589 6.1367 5.06623 5.55638C6.03201 4.59059 7.5729 4.72035 8.18611 5.81911Z" fill="#1A1A1A"/>
<path d="M10.4197 3.43669C10.4656 3.15319 10.7335 2.96087 11.017 3.00677C11.0346 3.01013 11.0911 3.02068 11.1206 3.02727C11.1798 3.04045 11.2623 3.06073 11.3652 3.0907C11.571 3.15064 11.8585 3.24937 12.2035 3.40755C12.8943 3.72423 13.8135 4.27822 14.7674 5.23212C15.7213 6.18602 16.2753 7.10526 16.5919 7.79602C16.7501 8.14103 16.8489 8.4285 16.9088 8.63427C16.9387 8.73716 16.959 8.81969 16.9722 8.87885C16.9788 8.90844 16.9836 8.93219 16.987 8.94974L16.991 8.97137C17.0368 9.25488 16.8463 9.53395 16.5628 9.57985C16.2801 9.62561 16.0138 9.43425 15.9668 9.15206C15.9653 9.1445 15.9613 9.12412 15.9571 9.10491C15.9485 9.06653 15.9337 9.00564 15.9103 8.92511C15.8633 8.76402 15.7819 8.52458 15.6465 8.22944C15.3763 7.63989 14.8902 6.82578 14.032 5.96752C13.1737 5.10925 12.3596 4.62323 11.7701 4.35294C11.4749 4.21763 11.2355 4.13614 11.0744 4.08922C10.9939 4.06577 10.8927 4.04253 10.8542 4.03398C10.5721 3.98695 10.3739 3.71938 10.4197 3.43669Z" fill="#1A1A1A"/>
<path fill-rule="evenodd" clip-rule="evenodd" d="M10.5768 5.82815C10.6557 5.552 10.9435 5.39211 11.2196 5.47101L11.2207 5.47129L11.2217 5.4716L11.224 5.47228L11.2294 5.47388L11.2431 5.47816C11.2535 5.4815 11.2666 5.48585 11.2822 5.49137C11.3133 5.50242 11.3545 5.51814 11.405 5.53977C11.506 5.58306 11.644 5.64992 11.8136 5.75025C12.1529 5.9511 12.6162 6.28472 13.1604 6.82897C13.7047 7.37322 14.0383 7.83651 14.2391 8.17587C14.3395 8.3454 14.4063 8.48342 14.4496 8.58443C14.4713 8.63491 14.487 8.67607 14.498 8.70721C14.5036 8.72277 14.5079 8.73583 14.5113 8.74628L14.5155 8.76L14.5171 8.76537L14.5178 8.76769L14.5181 8.76875C14.5181 8.76875 14.5184 8.76975 14.0184 8.9126L14.5184 8.76975C14.5973 9.04589 14.4374 9.33372 14.1613 9.41263C13.8875 9.49084 13.6022 9.33428 13.5204 9.06247L13.5178 9.05499C13.5142 9.04458 13.5065 9.02406 13.4937 8.99411C13.4681 8.93425 13.4215 8.83633 13.3442 8.70557C13.1896 8.44436 12.9103 8.04968 12.425 7.56437C11.9397 7.07907 11.545 6.79985 11.2838 6.64526C11.1531 6.56787 11.0552 6.52135 10.9953 6.4957C10.9653 6.48286 10.9448 6.47521 10.9344 6.47151L10.9269 6.46895C10.6551 6.38722 10.4986 6.10194 10.5768 5.82815Z" fill="#1A1A1A"/>
</svg>
