<svg width="24" height="24" viewBox="0 0 24 24" fill="none" xmlns="http://www.w3.org/2000/svg">
<path d="M9.47413 6.68656L10.0626 7.74096C10.5936 8.6925 10.3804 9.94076 9.54403 10.7771C9.54394 10.7773 8.52963 11.7917 10.3689 13.6311C12.2077 15.4698 13.2221 14.4567 13.2229 14.456C14.0593 13.6196 15.3075 13.4064 16.259 13.9375L17.3134 14.5259C18.7503 15.3278 18.9199 17.3427 17.657 18.6057C16.8981 19.3646 15.9684 19.9552 14.9407 19.994C13.2107 20.0597 10.2726 19.6219 7.32541 16.6746C4.3782 13.7274 3.94035 10.7893 4.00594 9.05926C4.0449 8.03155 4.6354 7.10188 5.39429 6.34299C6.65724 5.08004 8.67224 5.24973 9.47413 6.68656Z" fill="#1A1A1A"/>
<path d="M12.3951 3.57106C12.4551 3.20033 12.8055 2.94883 13.1763 3.00885C13.1992 3.01324 13.2731 3.02704 13.3117 3.03566C13.3892 3.05289 13.497 3.07942 13.6316 3.11861C13.9007 3.19699 14.2766 3.3261 14.7278 3.53295C15.6311 3.94707 16.8331 4.67151 18.0805 5.91892C19.3279 7.16632 20.0524 8.3684 20.4665 9.2717C20.6734 9.72287 20.8025 10.0988 20.8808 10.3679C20.92 10.5024 20.9465 10.6103 20.9638 10.6877C20.9724 10.7264 20.9787 10.7575 20.9831 10.7804L20.9883 10.8087C21.0483 11.1794 20.7991 11.5444 20.4284 11.6044C20.0587 11.6642 19.7105 11.414 19.649 11.045C19.6471 11.0351 19.6418 11.0084 19.6363 10.9833C19.6251 10.9331 19.6058 10.8535 19.5751 10.7482C19.5137 10.5375 19.4072 10.2244 19.2302 9.83848C18.8768 9.06754 18.2412 8.00293 17.1188 6.88059C15.9966 5.75825 14.9319 5.12268 14.161 4.76923C13.775 4.59228 13.462 4.48572 13.2512 4.42436C13.146 4.39369 13.0136 4.3633 12.9634 4.35212C12.5944 4.29063 12.3352 3.94073 12.3951 3.57106Z" fill="#1A1A1A"/>
<path fill-rule="evenodd" clip-rule="evenodd" d="M12.6005 6.69838C12.7037 6.33727 13.0801 6.12818 13.4412 6.23136L13.4426 6.23173L13.4439 6.23213L13.4469 6.23301L13.454 6.23511L13.4719 6.2407C13.4855 6.24507 13.5027 6.25077 13.523 6.25798C13.5637 6.27244 13.6176 6.29299 13.6836 6.32128C13.8157 6.37788 13.9961 6.46531 14.2179 6.59652C14.6616 6.85916 15.2674 7.29544 15.9792 8.00715C16.6909 8.71886 17.1271 9.3247 17.3898 9.76848C17.521 9.99017 17.6084 10.1707 17.665 10.3027C17.6933 10.3688 17.7139 10.4226 17.7283 10.4633C17.7356 10.4837 17.7412 10.5007 17.7456 10.5144L17.7512 10.5323L17.7533 10.5394L17.7542 10.5424L17.7545 10.5438C17.7545 10.5438 17.755 10.5451 17.1011 10.7319L17.755 10.5451C17.8582 10.9062 17.649 11.2826 17.288 11.3858C16.9299 11.488 16.5568 11.2833 16.4499 10.9279L16.4466 10.9181C16.4418 10.9045 16.4318 10.8776 16.415 10.8385C16.3815 10.7602 16.3206 10.6321 16.2194 10.4612C16.0173 10.1196 15.6521 9.60345 15.0175 8.96883C14.3829 8.3342 13.8667 7.96907 13.5252 7.76691C13.3542 7.66572 13.2261 7.60488 13.1478 7.57133C13.1086 7.55454 13.0818 7.54454 13.0682 7.53971L13.0584 7.53635C12.703 7.42947 12.4983 7.05642 12.6005 6.69838Z" fill="#1A1A1A"/>
</svg>
