<svg width="24" height="24" viewBox="0 0 24 24" fill="none" xmlns="http://www.w3.org/2000/svg">
<path d="M15.5857 4.92131C15.1715 4.92131 14.8357 4.58552 14.8357 4.17131C14.8357 3.7571 15.1715 3.42131 15.5857 3.42131L19.8284 3.42132C19.8481 3.42132 19.8678 3.42209 19.8873 3.42363C20.0496 3.43634 20.2086 3.50169 20.3365 3.61967C20.344 3.62659 20.3514 3.6337 20.3587 3.64099C20.366 3.64828 20.3731 3.65568 20.38 3.66319C20.4905 3.78316 20.5587 3.93564 20.5747 4.09719C20.5771 4.12172 20.5784 4.14645 20.5784 4.17132L20.5784 8.41395C20.5784 8.82816 20.2426 9.16395 19.8284 9.16395C19.4142 9.16395 19.0784 8.82816 19.0784 8.41395L19.0784 5.98203L14.0303 11.0303C13.7374 11.3232 13.2625 11.3232 12.9696 11.0303C12.6767 10.7375 12.6767 10.2626 12.9696 9.96968L18.0178 4.92131L15.5857 4.92131Z" fill="#363538"/>
<path d="M3.91652 20.5343C3.99615 20.5631 4.08206 20.5788 4.17163 20.5788L8.41428 20.5788C8.82849 20.5788 9.16428 20.243 9.16428 19.8288C9.16428 19.4146 8.82849 19.0788 8.41428 19.0788L5.98221 19.0788L11.0303 14.0303C11.3232 13.7374 11.3231 13.2625 11.0302 12.9697C10.7373 12.6768 10.2624 12.6768 9.96957 12.9697L4.92163 18.018V15.5861C4.92163 15.1719 4.58584 14.8361 4.17163 14.8361C3.75742 14.8361 3.42163 15.1719 3.42163 15.5861V19.8288C3.42163 19.9263 3.44024 20.0194 3.4741 20.1049C3.51069 20.1975 3.56643 20.2843 3.64132 20.3592C3.72183 20.4397 3.81608 20.498 3.91652 20.5343Z" fill="#363538"/>
</svg>
