<svg width="20" height="20" viewBox="0 0 20 20" fill="none" xmlns="http://www.w3.org/2000/svg">
<path d="M3.125 9.65625C3.125 10.5139 3.29394 11.3632 3.62216 12.1557C3.95039 12.9481 4.43148 13.6681 5.03796 14.2745C5.64444 14.881 6.36444 15.3621 7.15685 15.6903C7.94926 16.0186 8.79855 16.1875 9.65625 16.1875C10.5139 16.1875 11.3632 16.0186 12.1557 15.6903C12.9481 15.3621 13.6681 14.881 14.2745 14.2745C14.881 13.6681 15.3621 12.9481 15.6903 12.1557C16.0186 11.3632 16.1875 10.5139 16.1875 9.65625C16.1875 8.79855 16.0186 7.94926 15.6903 7.15685C15.3621 6.36444 14.881 5.64444 14.2745 5.03796C13.6681 4.43148 12.9481 3.95039 12.1557 3.62216C11.3632 3.29394 10.5139 3.125 9.65625 3.125C8.79855 3.125 7.94926 3.29394 7.15685 3.62216C6.36444 3.95039 5.64444 4.43148 5.03796 5.03796C4.43148 5.64444 3.95039 6.36444 3.62216 7.15685C3.29394 7.94926 3.125 8.79855 3.125 9.65625Z" stroke="#1A1A1A" stroke-width="1.5"/>
<path d="M14.4688 14.4688L16.875 16.875" stroke="#1A1A1A" stroke-width="1.5" stroke-linecap="round"/>
</svg>
