<svg width="24" height="24" viewBox="0 0 24 24" fill="none" xmlns="http://www.w3.org/2000/svg">
<path d="M3.75 11.5874C3.75 12.6167 3.95272 13.6358 4.34659 14.5867C4.74047 15.5376 5.31777 16.4016 6.04555 17.1294C6.77333 17.8572 7.63733 18.4345 8.58822 18.8283C9.53911 19.2222 10.5583 19.4249 11.5875 19.4249C12.6167 19.4249 13.6359 19.2222 14.5868 18.8283C15.5377 18.4345 16.4017 17.8572 17.1294 17.1294C17.8572 16.4016 18.4345 15.5376 18.8284 14.5867C19.2223 13.6358 19.425 12.6167 19.425 11.5874C19.425 10.5582 19.2223 9.53905 18.8284 8.58816C18.4345 7.63727 17.8572 6.77327 17.1294 6.04549C16.4017 5.31771 15.5377 4.7404 14.5868 4.34653C13.6359 3.95266 12.6167 3.74994 11.5875 3.74994C10.5583 3.74994 9.53911 3.95266 8.58822 4.34653C7.63733 4.7404 6.77333 5.31771 6.04555 6.04549C5.31777 6.77327 4.74047 7.63727 4.34659 8.58816C3.95272 9.53905 3.75 10.5582 3.75 11.5874Z" stroke="#1A1A1A" stroke-width="1.5"/>
<path d="M17.3625 17.3625L20.25 20.25" stroke="#1A1A1A" stroke-width="1.5" stroke-linecap="round"/>
</svg>
