<svg width="33" height="26" viewBox="0 0 33 26" fill="none" xmlns="http://www.w3.org/2000/svg">
<g filter="url(#filter0_dd_1325_11959)">
<rect x="5" y="3.5" width="23" height="16" rx="8" fill="#F53F3F"/>
<path d="M12.468 15.596C12.028 15.596 11.616 15.524 11.232 15.38C10.848 15.236 10.516 15.016 10.236 14.72C9.964 14.416 9.78 14.04 9.684 13.592H11.004C11.132 13.88 11.344 14.096 11.64 14.24C11.944 14.376 12.252 14.444 12.564 14.444C12.964 14.444 13.296 14.364 13.56 14.204C13.824 14.036 14.032 13.812 14.184 13.532C14.344 13.244 14.456 12.928 14.52 12.584C14.592 12.232 14.628 11.872 14.628 11.504C14.628 11.464 14.628 11.424 14.628 11.384C14.628 11.336 14.628 11.296 14.628 11.264C14.468 11.552 14.26 11.784 14.004 11.96C13.756 12.136 13.484 12.26 13.188 12.332C12.892 12.404 12.596 12.44 12.3 12.44C11.804 12.44 11.348 12.34 10.932 12.14C10.524 11.932 10.2 11.628 9.96 11.228C9.72 10.828 9.6 10.344 9.6 9.776C9.6 9.192 9.728 8.688 9.984 8.264C10.248 7.832 10.608 7.5 11.064 7.268C11.52 7.036 12.036 6.92 12.612 6.92C13.236 6.92 13.756 7.048 14.172 7.304C14.588 7.56 14.916 7.908 15.156 8.348C15.396 8.78 15.564 9.26 15.66 9.788C15.764 10.308 15.816 10.832 15.816 11.36C15.816 11.952 15.756 12.504 15.636 13.016C15.516 13.528 15.324 13.98 15.06 14.372C14.796 14.756 14.448 15.056 14.016 15.272C13.592 15.488 13.076 15.596 12.468 15.596ZM12.54 11.324C12.868 11.324 13.16 11.256 13.416 11.12C13.68 10.976 13.884 10.788 14.028 10.556C14.18 10.316 14.256 10.048 14.256 9.752C14.256 9.416 14.18 9.124 14.028 8.876C13.884 8.62 13.684 8.424 13.428 8.288C13.18 8.144 12.896 8.072 12.576 8.072C12.24 8.072 11.944 8.144 11.688 8.288C11.44 8.432 11.244 8.628 11.1 8.876C10.956 9.124 10.884 9.396 10.884 9.692C10.884 10.188 11.028 10.584 11.316 10.88C11.612 11.176 12.02 11.324 12.54 11.324ZM19.9094 15.596C19.4694 15.596 19.0574 15.524 18.6734 15.38C18.2894 15.236 17.9574 15.016 17.6774 14.72C17.4054 14.416 17.2214 14.04 17.1254 13.592H18.4454C18.5734 13.88 18.7854 14.096 19.0814 14.24C19.3854 14.376 19.6934 14.444 20.0054 14.444C20.4054 14.444 20.7374 14.364 21.0014 14.204C21.2654 14.036 21.4734 13.812 21.6254 13.532C21.7854 13.244 21.8974 12.928 21.9614 12.584C22.0334 12.232 22.0694 11.872 22.0694 11.504C22.0694 11.464 22.0694 11.424 22.0694 11.384C22.0694 11.336 22.0694 11.296 22.0694 11.264C21.9094 11.552 21.7014 11.784 21.4454 11.96C21.1974 12.136 20.9254 12.26 20.6294 12.332C20.3334 12.404 20.0374 12.44 19.7414 12.44C19.2454 12.44 18.7894 12.34 18.3734 12.14C17.9654 11.932 17.6414 11.628 17.4014 11.228C17.1614 10.828 17.0414 10.344 17.0414 9.776C17.0414 9.192 17.1694 8.688 17.4254 8.264C17.6894 7.832 18.0494 7.5 18.5054 7.268C18.9614 7.036 19.4774 6.92 20.0534 6.92C20.6774 6.92 21.1974 7.048 21.6134 7.304C22.0294 7.56 22.3574 7.908 22.5974 8.348C22.8374 8.78 23.0054 9.26 23.1014 9.788C23.2054 10.308 23.2574 10.832 23.2574 11.36C23.2574 11.952 23.1974 12.504 23.0774 13.016C22.9574 13.528 22.7654 13.98 22.5014 14.372C22.2374 14.756 21.8894 15.056 21.4574 15.272C21.0334 15.488 20.5174 15.596 19.9094 15.596ZM19.9814 11.324C20.3094 11.324 20.6014 11.256 20.8574 11.12C21.1214 10.976 21.3254 10.788 21.4694 10.556C21.6214 10.316 21.6974 10.048 21.6974 9.752C21.6974 9.416 21.6214 9.124 21.4694 8.876C21.3254 8.62 21.1254 8.424 20.8694 8.288C20.6214 8.144 20.3374 8.072 20.0174 8.072C19.6814 8.072 19.3854 8.144 19.1294 8.288C18.8814 8.432 18.6854 8.628 18.5414 8.876C18.3974 9.124 18.3254 9.396 18.3254 9.692C18.3254 10.188 18.4694 10.584 18.7574 10.88C19.0534 11.176 19.4614 11.324 19.9814 11.324Z" fill="white"/>
</g>
<defs>
<filter id="filter0_dd_1325_11959" x="0" y="0" width="33" height="26" filterUnits="userSpaceOnUse" color-interpolation-filters="sRGB">
<feFlood flood-opacity="0" result="BackgroundImageFix"/>
<feColorMatrix in="SourceAlpha" type="matrix" values="0 0 0 0 0 0 0 0 0 0 0 0 0 0 0 0 0 0 127 0" result="hardAlpha"/>
<feOffset dy="1"/>
<feGaussianBlur stdDeviation="1"/>
<feColorMatrix type="matrix" values="0 0 0 0 0.960784 0 0 0 0 0.247059 0 0 0 0 0.247059 0 0 0 0.4 0"/>
<feBlend mode="normal" in2="BackgroundImageFix" result="effect1_dropShadow_1325_11959"/>
<feColorMatrix in="SourceAlpha" type="matrix" values="0 0 0 0 0 0 0 0 0 0 0 0 0 0 0 0 0 0 127 0" result="hardAlpha"/>
<feOffset dy="1.5"/>
<feGaussianBlur stdDeviation="2.5"/>
<feColorMatrix type="matrix" values="0 0 0 0 0.960784 0 0 0 0 0.247059 0 0 0 0 0.247059 0 0 0 0.6 0"/>
<feBlend mode="normal" in2="effect1_dropShadow_1325_11959" result="effect2_dropShadow_1325_11959"/>
<feBlend mode="normal" in="SourceGraphic" in2="effect2_dropShadow_1325_11959" result="shape"/>
</filter>
</defs>
</svg>
