<svg width="60" height="36" viewBox="0 0 60 36" fill="none" xmlns="http://www.w3.org/2000/svg">
<rect width="60" height="36" rx="18" fill="#EFF3F8"/>
<path d="M13.162 23V13.102H14.646V21.642H19.938V23H13.162ZM23.5055 23.084C23.1695 23.084 22.8428 23.042 22.5255 22.958C22.2175 22.8647 21.9422 22.7293 21.6995 22.552C21.4568 22.3653 21.2608 22.1367 21.1115 21.866C20.9715 21.586 20.9015 21.2593 20.9015 20.886C20.9015 20.438 20.9855 20.0693 21.1535 19.78C21.3308 19.4813 21.5642 19.2527 21.8535 19.094C22.1428 18.926 22.4742 18.8093 22.8475 18.744C23.2302 18.6693 23.6268 18.632 24.0375 18.632H25.8435C25.8435 18.268 25.7875 17.9507 25.6755 17.68C25.5635 17.4 25.3862 17.1853 25.1435 17.036C24.9102 16.8773 24.5975 16.798 24.2055 16.798C23.9722 16.798 23.7482 16.826 23.5335 16.882C23.3282 16.9287 23.1508 17.008 23.0015 17.12C22.8522 17.232 22.7495 17.3813 22.6935 17.568H21.1815C21.2375 17.2133 21.3635 16.91 21.5595 16.658C21.7555 16.3967 21.9982 16.182 22.2875 16.014C22.5768 15.846 22.8848 15.7247 23.2115 15.65C23.5475 15.566 23.8882 15.524 24.2335 15.524C25.2975 15.524 26.0628 15.8367 26.5295 16.462C27.0055 17.078 27.2435 17.9273 27.2435 19.01V23H25.9975L25.9415 22.062C25.7268 22.3513 25.4702 22.5707 25.1715 22.72C24.8822 22.8693 24.5928 22.9673 24.3035 23.014C24.0142 23.0607 23.7482 23.084 23.5055 23.084ZM23.7295 21.866C24.1495 21.866 24.5182 21.796 24.8355 21.656C25.1528 21.5067 25.4002 21.2967 25.5775 21.026C25.7548 20.746 25.8435 20.4193 25.8435 20.046V19.738H24.5275C24.2568 19.738 23.9908 19.7473 23.7295 19.766C23.4775 19.7753 23.2442 19.8127 23.0295 19.878C22.8242 19.934 22.6562 20.032 22.5255 20.172C22.4042 20.312 22.3435 20.5127 22.3435 20.774C22.3435 21.026 22.4088 21.2313 22.5395 21.39C22.6702 21.5487 22.8428 21.67 23.0575 21.754C23.2722 21.8287 23.4962 21.866 23.7295 21.866ZM32.6978 23.084C32.3898 23.084 32.0958 23.0513 31.8158 22.986C31.5451 22.9207 31.2885 22.818 31.0458 22.678C30.8125 22.5287 30.6025 22.3467 30.4158 22.132L30.3738 23H28.9738V13.102H30.4158V16.616C30.6771 16.2613 31.0271 15.9907 31.4658 15.804C31.9045 15.6173 32.3571 15.524 32.8238 15.524C33.5611 15.524 34.1678 15.692 34.6438 16.028C35.1198 16.3547 35.4698 16.8027 35.6938 17.372C35.9271 17.932 36.0438 18.5713 36.0438 19.29C36.0438 19.9993 35.9225 20.6433 35.6798 21.222C35.4371 21.7913 35.0685 22.244 34.5738 22.58C34.0885 22.916 33.4631 23.084 32.6978 23.084ZM32.5438 21.81C33.0571 21.81 33.4631 21.6933 33.7618 21.46C34.0605 21.2267 34.2751 20.9187 34.4058 20.536C34.5365 20.1533 34.6018 19.7427 34.6018 19.304C34.6018 18.8467 34.5318 18.4313 34.3918 18.058C34.2611 17.6847 34.0418 17.386 33.7338 17.162C33.4351 16.938 33.0338 16.826 32.5298 16.826C32.0725 16.826 31.6851 16.952 31.3678 17.204C31.0505 17.4467 30.8078 17.7593 30.6398 18.142C30.4811 18.5247 30.4018 18.9213 30.4018 19.332C30.4018 19.7613 30.4718 20.1673 30.6118 20.55C30.7611 20.9233 30.9945 21.2267 31.3118 21.46C31.6291 21.6933 32.0398 21.81 32.5438 21.81ZM40.7804 23.084C40.0057 23.084 39.3571 22.9253 38.8344 22.608C38.3117 22.2907 37.9151 21.852 37.6444 21.292C37.3831 20.7227 37.2524 20.0693 37.2524 19.332C37.2524 18.5853 37.3877 17.9273 37.6584 17.358C37.9384 16.7887 38.3397 16.3407 38.8624 16.014C39.3944 15.6873 40.0337 15.524 40.7804 15.524C41.3497 15.524 41.8444 15.6313 42.2644 15.846C42.6844 16.0513 43.0297 16.3313 43.3004 16.686C43.5804 17.0407 43.7857 17.4373 43.9164 17.876C44.0471 18.3053 44.1031 18.7533 44.0844 19.22C44.0844 19.3227 44.0797 19.4207 44.0704 19.514C44.0611 19.6073 44.0517 19.7053 44.0424 19.808H38.7084C38.7364 20.1813 38.8297 20.522 38.9884 20.83C39.1564 21.138 39.3897 21.3853 39.6884 21.572C39.9871 21.7493 40.3557 21.838 40.7944 21.838C41.0371 21.838 41.2704 21.81 41.4944 21.754C41.7277 21.6887 41.9331 21.5907 42.1104 21.46C42.2971 21.32 42.4277 21.1427 42.5024 20.928H43.9584C43.8371 21.4227 43.6177 21.8333 43.3004 22.16C42.9924 22.4773 42.6144 22.7107 42.1664 22.86C41.7277 23.0093 41.2657 23.084 40.7804 23.084ZM38.7364 18.66H42.6564C42.6471 18.296 42.5631 17.974 42.4044 17.694C42.2457 17.4047 42.0264 17.1807 41.7464 17.022C41.4664 16.854 41.1304 16.77 40.7384 16.77C40.3091 16.77 39.9497 16.8587 39.6604 17.036C39.3804 17.2133 39.1611 17.4467 39.0024 17.736C38.8531 18.016 38.7644 18.324 38.7364 18.66ZM45.5715 23V13.102H47.0135V23H45.5715Z" fill="#008FD2"/>
</svg>
