<svg width="69" height="44" viewBox="0 0 69 44" fill="none" xmlns="http://www.w3.org/2000/svg">
<path d="M1.162 27V17.102H2.646V25.642H7.938V27H1.162ZM12.4435 27.084C11.6782 27.084 11.0295 26.93 10.4975 26.622C9.96548 26.3047 9.55948 25.8613 9.27948 25.292C9.00882 24.7227 8.87348 24.0647 8.87348 23.318C8.87348 22.562 9.01348 21.904 9.29348 21.344C9.57348 20.7747 9.97948 20.3313 10.5115 20.014C11.0435 19.6873 11.6922 19.524 12.4575 19.524C13.2228 19.524 13.8715 19.6873 14.4035 20.014C14.9355 20.3313 15.3368 20.7747 15.6075 21.344C15.8782 21.9133 16.0135 22.576 16.0135 23.332C16.0135 24.0693 15.8735 24.7227 15.5935 25.292C15.3228 25.8613 14.9215 26.3047 14.3895 26.622C13.8668 26.93 13.2182 27.084 12.4435 27.084ZM12.4435 25.796C12.9475 25.796 13.3535 25.684 13.6615 25.46C13.9788 25.236 14.2122 24.9373 14.3615 24.564C14.5108 24.1813 14.5855 23.766 14.5855 23.318C14.5855 22.87 14.5108 22.4593 14.3615 22.086C14.2122 21.7127 13.9788 21.414 13.6615 21.19C13.3535 20.9567 12.9475 20.84 12.4435 20.84C11.9488 20.84 11.5428 20.9567 11.2255 21.19C10.9082 21.414 10.6748 21.7127 10.5255 22.086C10.3855 22.4593 10.3155 22.87 10.3155 23.318C10.3155 23.7753 10.3855 24.1907 10.5255 24.564C10.6748 24.9373 10.9082 25.236 11.2255 25.46C11.5428 25.684 11.9488 25.796 12.4435 25.796ZM17.4933 27V19.622H18.8653L18.9353 20.658C19.122 20.3873 19.346 20.1727 19.6073 20.014C19.8687 19.846 20.1487 19.7247 20.4473 19.65C20.746 19.566 21.0353 19.524 21.3153 19.524C22.0247 19.524 22.58 19.678 22.9813 19.986C23.392 20.2847 23.6813 20.6907 23.8493 21.204C24.0267 21.708 24.1153 22.282 24.1153 22.926V27H22.6593V23.22C22.6593 22.9213 22.6407 22.6273 22.6033 22.338C22.566 22.0487 22.4867 21.792 22.3653 21.568C22.2533 21.3347 22.09 21.1527 21.8753 21.022C21.6607 20.882 21.3713 20.812 21.0073 20.812C20.5593 20.812 20.1813 20.9333 19.8733 21.176C19.5653 21.4187 19.332 21.7453 19.1733 22.156C19.0147 22.5667 18.9353 23.0287 18.9353 23.542V27H17.4933ZM29.1512 30.346C28.6285 30.346 28.1432 30.262 27.6952 30.094C27.2472 29.9353 26.8645 29.6787 26.5472 29.324C26.2392 28.9787 26.0292 28.5353 25.9172 27.994H27.4152C27.4805 28.246 27.6065 28.4467 27.7932 28.596C27.9798 28.7547 28.1992 28.8667 28.4512 28.932C28.7032 28.9973 28.9552 29.03 29.2072 29.03C29.6832 29.03 30.0658 28.932 30.3552 28.736C30.6445 28.54 30.8498 28.274 30.9712 27.938C31.1018 27.6113 31.1672 27.238 31.1672 26.818V25.964C31.0085 26.2347 30.7985 26.454 30.5372 26.622C30.2758 26.79 29.9958 26.9113 29.6972 26.986C29.4078 27.0513 29.1092 27.084 28.8012 27.084C28.0452 27.084 27.4292 26.916 26.9532 26.58C26.4772 26.244 26.1225 25.796 25.8892 25.236C25.6652 24.6667 25.5532 24.0367 25.5532 23.346C25.5532 22.6367 25.6698 21.9927 25.9032 21.414C26.1458 20.8353 26.5145 20.378 27.0092 20.042C27.5038 19.6967 28.1292 19.524 28.8852 19.524C29.3238 19.524 29.7485 19.6033 30.1592 19.762C30.5698 19.9113 30.9105 20.154 31.1812 20.49L31.2652 19.622H32.6232V26.65C32.6232 27.406 32.5018 28.0593 32.2592 28.61C32.0165 29.17 31.6385 29.5993 31.1252 29.898C30.6118 30.1967 29.9538 30.346 29.1512 30.346ZM29.0672 25.796C29.5338 25.796 29.9212 25.684 30.2292 25.46C30.5465 25.2267 30.7845 24.9187 30.9432 24.536C31.1018 24.1533 31.1812 23.7333 31.1812 23.276C31.1812 22.8093 31.1018 22.394 30.9432 22.03C30.7845 21.6567 30.5512 21.3627 30.2432 21.148C29.9352 20.9333 29.5385 20.826 29.0532 20.826C28.5492 20.826 28.1478 20.9427 27.8492 21.176C27.5505 21.4 27.3312 21.7033 27.1912 22.086C27.0605 22.4593 26.9952 22.8747 26.9952 23.332C26.9952 23.7987 27.0652 24.2187 27.2052 24.592C27.3452 24.9653 27.5645 25.2593 27.8632 25.474C28.1712 25.6887 28.5725 25.796 29.0672 25.796ZM38.2336 27V17.102H39.6756V27H38.2336ZM43.8121 27.084C43.4761 27.084 43.1495 27.042 42.8321 26.958C42.5241 26.8647 42.2488 26.7293 42.0061 26.552C41.7635 26.3653 41.5675 26.1367 41.4181 25.866C41.2781 25.586 41.2081 25.2593 41.2081 24.886C41.2081 24.438 41.2921 24.0693 41.4601 23.78C41.6375 23.4813 41.8708 23.2527 42.1601 23.094C42.4495 22.926 42.7808 22.8093 43.1541 22.744C43.5368 22.6693 43.9335 22.632 44.3441 22.632H46.1501C46.1501 22.268 46.0941 21.9507 45.9821 21.68C45.8701 21.4 45.6928 21.1853 45.4501 21.036C45.2168 20.8773 44.9041 20.798 44.5121 20.798C44.2788 20.798 44.0548 20.826 43.8401 20.882C43.6348 20.9287 43.4575 21.008 43.3081 21.12C43.1588 21.232 43.0561 21.3813 43.0001 21.568H41.4881C41.5441 21.2133 41.6701 20.91 41.8661 20.658C42.0621 20.3967 42.3048 20.182 42.5941 20.014C42.8835 19.846 43.1915 19.7247 43.5181 19.65C43.8541 19.566 44.1948 19.524 44.5401 19.524C45.6041 19.524 46.3695 19.8367 46.8361 20.462C47.3121 21.078 47.5501 21.9273 47.5501 23.01V27H46.3041L46.2481 26.062C46.0335 26.3513 45.7768 26.5707 45.4781 26.72C45.1888 26.8693 44.8995 26.9673 44.6101 27.014C44.3208 27.0607 44.0548 27.084 43.8121 27.084ZM44.0361 25.866C44.4561 25.866 44.8248 25.796 45.1421 25.656C45.4595 25.5067 45.7068 25.2967 45.8841 25.026C46.0615 24.746 46.1501 24.4193 46.1501 24.046V23.738H44.8341C44.5635 23.738 44.2975 23.7473 44.0361 23.766C43.7841 23.7753 43.5508 23.8127 43.3361 23.878C43.1308 23.934 42.9628 24.032 42.8321 24.172C42.7108 24.312 42.6501 24.5127 42.6501 24.774C42.6501 25.026 42.7155 25.2313 42.8461 25.39C42.9768 25.5487 43.1495 25.67 43.3641 25.754C43.5788 25.8287 43.8028 25.866 44.0361 25.866ZM53.0044 27.084C52.6964 27.084 52.4024 27.0513 52.1224 26.986C51.8518 26.9207 51.5951 26.818 51.3524 26.678C51.1191 26.5287 50.9091 26.3467 50.7224 26.132L50.6804 27H49.2804V17.102H50.7224V20.616C50.9838 20.2613 51.3338 19.9907 51.7724 19.804C52.2111 19.6173 52.6638 19.524 53.1304 19.524C53.8678 19.524 54.4744 19.692 54.9504 20.028C55.4264 20.3547 55.7764 20.8027 56.0004 21.372C56.2338 21.932 56.3504 22.5713 56.3504 23.29C56.3504 23.9993 56.2291 24.6433 55.9864 25.222C55.7438 25.7913 55.3751 26.244 54.8804 26.58C54.3951 26.916 53.7698 27.084 53.0044 27.084ZM52.8504 25.81C53.3638 25.81 53.7698 25.6933 54.0684 25.46C54.3671 25.2267 54.5818 24.9187 54.7124 24.536C54.8431 24.1533 54.9084 23.7427 54.9084 23.304C54.9084 22.8467 54.8384 22.4313 54.6984 22.058C54.5678 21.6847 54.3484 21.386 54.0404 21.162C53.7418 20.938 53.3404 20.826 52.8364 20.826C52.3791 20.826 51.9918 20.952 51.6744 21.204C51.3571 21.4467 51.1144 21.7593 50.9464 22.142C50.7878 22.5247 50.7084 22.9213 50.7084 23.332C50.7084 23.7613 50.7784 24.1673 50.9184 24.55C51.0678 24.9233 51.3011 25.2267 51.6184 25.46C51.9358 25.6933 52.3464 25.81 52.8504 25.81ZM61.087 27.084C60.3124 27.084 59.6637 26.9253 59.141 26.608C58.6184 26.2907 58.2217 25.852 57.951 25.292C57.6897 24.7227 57.559 24.0693 57.559 23.332C57.559 22.5853 57.6944 21.9273 57.965 21.358C58.245 20.7887 58.6464 20.3407 59.169 20.014C59.701 19.6873 60.3404 19.524 61.087 19.524C61.6564 19.524 62.151 19.6313 62.571 19.846C62.991 20.0513 63.3364 20.3313 63.607 20.686C63.887 21.0407 64.0924 21.4373 64.223 21.876C64.3537 22.3053 64.4097 22.7533 64.391 23.22C64.391 23.3227 64.3864 23.4207 64.377 23.514C64.3677 23.6073 64.3584 23.7053 64.349 23.808H59.015C59.043 24.1813 59.1364 24.522 59.295 24.83C59.463 25.138 59.6964 25.3853 59.995 25.572C60.2937 25.7493 60.6624 25.838 61.101 25.838C61.3437 25.838 61.577 25.81 61.801 25.754C62.0344 25.6887 62.2397 25.5907 62.417 25.46C62.6037 25.32 62.7344 25.1427 62.809 24.928H64.265C64.1437 25.4227 63.9244 25.8333 63.607 26.16C63.299 26.4773 62.921 26.7107 62.473 26.86C62.0344 27.0093 61.5724 27.084 61.087 27.084ZM59.043 22.66H62.963C62.9537 22.296 62.8697 21.974 62.711 21.694C62.5524 21.4047 62.333 21.1807 62.053 21.022C61.773 20.854 61.437 20.77 61.045 20.77C60.6157 20.77 60.2564 20.8587 59.967 21.036C59.687 21.2133 59.4677 21.4467 59.309 21.736C59.1597 22.016 59.071 22.324 59.043 22.66ZM65.8781 27V17.102H67.3201V27H65.8781Z" fill="#008FD2"/>
</svg>
