<svg width="79" height="48" viewBox="0 0 79 48" fill="none" xmlns="http://www.w3.org/2000/svg">
<path d="M1.264 29V17.688H3.264V27.176H9.152V29H1.264ZM14.3469 29.112C13.4829 29.112 12.7362 28.936 12.1069 28.584C11.4882 28.232 11.0082 27.7307 10.6669 27.08C10.3362 26.4293 10.1709 25.6667 10.1709 24.792C10.1709 23.9067 10.3415 23.144 10.6829 22.504C11.0242 21.8533 11.5042 21.3467 12.1229 20.984C12.7415 20.6213 13.4829 20.44 14.3469 20.44C15.2002 20.44 15.9362 20.6213 16.5549 20.984C17.1735 21.3467 17.6482 21.8587 17.9789 22.52C18.3095 23.1707 18.4749 23.9387 18.4749 24.824C18.4749 25.688 18.3095 26.4453 17.9789 27.096C17.6589 27.736 17.1895 28.232 16.5709 28.584C15.9522 28.936 15.2109 29.112 14.3469 29.112ZM14.3309 27.336C14.8642 27.336 15.2909 27.2187 15.6109 26.984C15.9415 26.7493 16.1815 26.44 16.3309 26.056C16.4802 25.672 16.5549 25.256 16.5549 24.808C16.5549 24.36 16.4802 23.9387 16.3309 23.544C16.1815 23.1493 15.9415 22.8347 15.6109 22.6C15.2909 22.3547 14.8642 22.232 14.3309 22.232C13.7975 22.232 13.3655 22.3547 13.0349 22.6C12.7042 22.8347 12.4642 23.1493 12.3149 23.544C12.1655 23.928 12.0909 24.3493 12.0909 24.808C12.0909 25.256 12.1655 25.6773 12.3149 26.072C12.4749 26.456 12.7149 26.7653 13.0349 27C13.3655 27.224 13.7975 27.336 14.3309 27.336ZM20.0378 29V20.568H21.8618L21.9738 21.64C22.1978 21.3413 22.4591 21.1067 22.7578 20.936C23.0564 20.7653 23.3711 20.6427 23.7018 20.568C24.0324 20.4827 24.3418 20.44 24.6298 20.44C25.4298 20.44 26.0591 20.616 26.5178 20.968C26.9871 21.32 27.3178 21.7893 27.5098 22.376C27.7018 22.9627 27.7978 23.6187 27.7978 24.344V29H25.8458V24.664C25.8458 24.3547 25.8244 24.056 25.7818 23.768C25.7391 23.4693 25.6538 23.2027 25.5258 22.968C25.4084 22.7333 25.2378 22.5467 25.0138 22.408C24.7898 22.2693 24.4911 22.2 24.1178 22.2C23.6591 22.2 23.2698 22.3227 22.9498 22.568C22.6298 22.8133 22.3898 23.144 22.2298 23.56C22.0698 23.9653 21.9898 24.4293 21.9898 24.952V29H20.0378ZM33.5515 32.856C32.9328 32.856 32.3515 32.7547 31.8075 32.552C31.2742 32.36 30.8208 32.0507 30.4475 31.624C30.0848 31.208 29.8395 30.6693 29.7115 30.008H31.7115C31.7755 30.264 31.9035 30.472 32.0955 30.632C32.2875 30.792 32.5115 30.904 32.7675 30.968C33.0342 31.0427 33.3062 31.08 33.5835 31.08C34.1062 31.08 34.5168 30.9733 34.8155 30.76C35.1248 30.5467 35.3435 30.2533 35.4715 29.88C35.5995 29.5173 35.6635 29.1173 35.6635 28.68V27.88C35.4715 28.1893 35.2262 28.4347 34.9275 28.616C34.6395 28.7973 34.3302 28.9253 33.9995 29C33.6795 29.064 33.3595 29.096 33.0395 29.096C32.1648 29.096 31.4502 28.904 30.8955 28.52C30.3515 28.136 29.9515 27.624 29.6955 26.984C29.4395 26.3333 29.3115 25.6187 29.3115 24.84C29.3115 24.0293 29.4502 23.2933 29.7275 22.632C30.0155 21.96 30.4422 21.4267 31.0075 21.032C31.5835 20.6373 32.3035 20.44 33.1675 20.44C33.6688 20.44 34.1382 20.5307 34.5755 20.712C35.0235 20.8827 35.3968 21.144 35.6955 21.496L35.8235 20.568H37.6315V28.264C37.6315 29.2133 37.4928 30.0293 37.2155 30.712C36.9488 31.4053 36.5168 31.9333 35.9195 32.296C35.3222 32.6693 34.5328 32.856 33.5515 32.856ZM33.4395 27.368C33.9408 27.368 34.3568 27.2507 34.6875 27.016C35.0182 26.7707 35.2688 26.4507 35.4395 26.056C35.6102 25.6507 35.6955 25.2133 35.6955 24.744C35.6955 24.264 35.6102 23.832 35.4395 23.448C35.2795 23.064 35.0342 22.76 34.7035 22.536C34.3835 22.312 33.9675 22.2 33.4555 22.2C32.9115 22.2 32.4795 22.3227 32.1595 22.568C31.8395 22.8133 31.6048 23.1387 31.4555 23.544C31.3168 23.9387 31.2475 24.36 31.2475 24.808C31.2475 25.2773 31.3222 25.7093 31.4715 26.104C31.6208 26.488 31.8555 26.7973 32.1755 27.032C32.4955 27.256 32.9168 27.368 33.4395 27.368ZM43.9753 29V17.688H45.9273V29H43.9753ZM50.507 29.112C50.1123 29.112 49.739 29.0587 49.387 28.952C49.035 28.8453 48.7203 28.6907 48.443 28.488C48.1657 28.2747 47.9417 28.0133 47.771 27.704C47.611 27.384 47.531 27.0107 47.531 26.584C47.531 26.04 47.6377 25.5973 47.851 25.256C48.0643 24.904 48.3523 24.6373 48.715 24.456C49.0883 24.2747 49.5097 24.152 49.979 24.088C50.4483 24.0133 50.939 23.976 51.451 23.976H53.099C53.099 23.6027 53.0403 23.2827 52.923 23.016C52.8057 22.7387 52.619 22.52 52.363 22.36C52.1177 22.2 51.7977 22.12 51.403 22.12C51.147 22.12 50.907 22.152 50.683 22.216C50.4697 22.2693 50.283 22.36 50.123 22.488C49.9737 22.6053 49.867 22.76 49.803 22.952H47.803C47.8777 22.5147 48.027 22.1413 48.251 21.832C48.4857 21.512 48.7683 21.2507 49.099 21.048C49.4403 20.8453 49.8137 20.696 50.219 20.6C50.6243 20.4933 51.035 20.44 51.451 20.44C52.6777 20.44 53.5683 20.792 54.123 21.496C54.6883 22.2 54.971 23.1867 54.971 24.456V29H53.243L53.195 27.912C52.9497 28.2747 52.6563 28.5413 52.315 28.712C51.9737 28.8827 51.643 28.9893 51.323 29.032C51.003 29.0853 50.731 29.112 50.507 29.112ZM50.891 27.528C51.3177 27.528 51.6963 27.448 52.027 27.288C52.3577 27.128 52.619 26.904 52.811 26.616C53.0137 26.328 53.115 25.9973 53.115 25.624V25.352H51.579C51.323 25.352 51.067 25.3627 50.811 25.384C50.5657 25.3947 50.3417 25.4373 50.139 25.512C49.9363 25.576 49.771 25.6773 49.643 25.816C49.5257 25.9547 49.467 26.152 49.467 26.408C49.467 26.664 49.531 26.872 49.659 27.032C49.7977 27.192 49.9737 27.3147 50.187 27.4C50.411 27.4853 50.6457 27.528 50.891 27.528ZM61.3626 29.112C61.0533 29.112 60.744 29.08 60.4346 29.016C60.1253 28.952 59.8266 28.84 59.5386 28.68C59.2613 28.52 59.0053 28.3067 58.7706 28.04L58.7226 29H56.8346V17.688H58.7866V21.624C59.096 21.2293 59.4906 20.936 59.9706 20.744C60.4613 20.5413 60.968 20.44 61.4906 20.44C62.3226 20.44 63.0053 20.632 63.5386 21.016C64.0826 21.3893 64.4826 21.9013 64.7386 22.552C65.0053 23.2027 65.1386 23.9387 65.1386 24.76C65.1386 25.5813 65 26.3227 64.7226 26.984C64.456 27.6347 64.0453 28.152 63.4906 28.536C62.936 28.92 62.2266 29.112 61.3626 29.112ZM61.0426 27.384C61.5866 27.384 62.0133 27.2613 62.3226 27.016C62.6426 26.76 62.872 26.4293 63.0106 26.024C63.1493 25.6187 63.2186 25.192 63.2186 24.744C63.2186 24.2853 63.144 23.864 62.9946 23.48C62.856 23.096 62.6266 22.7867 62.3066 22.552C61.9866 22.3173 61.56 22.2 61.0266 22.2C60.536 22.2 60.12 22.328 59.7786 22.584C59.448 22.8293 59.1973 23.1547 59.0266 23.56C58.856 23.9547 58.7706 24.3653 58.7706 24.792C58.7706 25.24 58.8453 25.6613 58.9946 26.056C59.1546 26.4507 59.4 26.7707 59.7306 27.016C60.072 27.2613 60.5093 27.384 61.0426 27.384ZM70.4856 29.112C69.611 29.112 68.8643 28.9307 68.2456 28.568C67.6376 28.2053 67.1736 27.704 66.8536 27.064C66.5443 26.4133 66.3896 25.6613 66.3896 24.808C66.3896 23.9547 66.5496 23.2027 66.8696 22.552C67.2003 21.8907 67.6696 21.3733 68.2776 21C68.8963 20.6267 69.6376 20.44 70.5016 20.44C71.1416 20.44 71.7016 20.5573 72.1816 20.792C72.6616 21.016 73.0616 21.3253 73.3816 21.72C73.7123 22.1147 73.9576 22.5627 74.1176 23.064C74.2776 23.5653 74.3523 24.0933 74.3416 24.648C74.331 24.776 74.3203 24.904 74.3096 25.032C74.299 25.1493 74.283 25.2773 74.2616 25.416H68.3416C68.3736 25.7893 68.4696 26.1307 68.6296 26.44C68.8003 26.7493 69.035 26.9947 69.3336 27.176C69.643 27.3573 70.027 27.448 70.4856 27.448C70.7523 27.448 71.0083 27.416 71.2536 27.352C71.499 27.2773 71.7123 27.1707 71.8936 27.032C72.0856 26.8933 72.2136 26.7173 72.2776 26.504H74.2296C74.091 27.112 73.835 27.608 73.4616 27.992C73.0883 28.376 72.6403 28.6587 72.1176 28.84C71.6056 29.0213 71.0616 29.112 70.4856 29.112ZM68.3736 23.96H72.4376C72.4376 23.608 72.3576 23.288 72.1976 23C72.0376 22.712 71.8083 22.488 71.5096 22.328C71.2216 22.1573 70.8696 22.072 70.4536 22.072C70.0056 22.072 69.6323 22.1627 69.3336 22.344C69.035 22.5253 68.8056 22.76 68.6456 23.048C68.4856 23.336 68.395 23.64 68.3736 23.96ZM75.8971 29V17.688H77.8491V29H75.8971Z" fill="#008FD2"/>
</svg>
