<svg width="93" height="44" viewBox="0 0 93 44" fill="none" xmlns="http://www.w3.org/2000/svg">
<path d="M13.2308 14L16.3078 17.0769L13.2308 20.1538" stroke="#008FD2" stroke-width="1.5" stroke-linecap="round" stroke-linejoin="round"/>
<path d="M16.9231 23.5385C16.9231 24.8164 16.5441 26.0657 15.8341 27.1282C15.1241 28.1909 14.115 29.0191 12.9343 29.5082C11.7536 29.9972 10.4544 30.1252 9.20096 29.8758C7.94755 29.6266 6.79621 29.0111 5.89254 28.1074C4.98889 27.2038 4.37348 26.0524 4.12416 24.799C3.87484 23.5456 4.00279 22.2464 4.49185 21.0657C4.98091 19.885 5.80911 18.8759 6.87171 18.1659C7.9343 17.4559 9.18357 17.0769 10.4615 17.0769H16.3077" stroke="#008FD2" stroke-width="1.5" stroke-linecap="round" stroke-linejoin="round"/>
<path d="M25.162 27V17.102H26.646V25.642H31.938V27H25.162ZM36.4435 27.084C35.6782 27.084 35.0295 26.93 34.4975 26.622C33.9655 26.3047 33.5595 25.8613 33.2795 25.292C33.0088 24.7227 32.8735 24.0647 32.8735 23.318C32.8735 22.562 33.0135 21.904 33.2935 21.344C33.5735 20.7747 33.9795 20.3313 34.5115 20.014C35.0435 19.6873 35.6922 19.524 36.4575 19.524C37.2228 19.524 37.8715 19.6873 38.4035 20.014C38.9355 20.3313 39.3368 20.7747 39.6075 21.344C39.8782 21.9133 40.0135 22.576 40.0135 23.332C40.0135 24.0693 39.8735 24.7227 39.5935 25.292C39.3228 25.8613 38.9215 26.3047 38.3895 26.622C37.8668 26.93 37.2182 27.084 36.4435 27.084ZM36.4435 25.796C36.9475 25.796 37.3535 25.684 37.6615 25.46C37.9788 25.236 38.2122 24.9373 38.3615 24.564C38.5108 24.1813 38.5855 23.766 38.5855 23.318C38.5855 22.87 38.5108 22.4593 38.3615 22.086C38.2122 21.7127 37.9788 21.414 37.6615 21.19C37.3535 20.9567 36.9475 20.84 36.4435 20.84C35.9488 20.84 35.5428 20.9567 35.2255 21.19C34.9082 21.414 34.6748 21.7127 34.5255 22.086C34.3855 22.4593 34.3155 22.87 34.3155 23.318C34.3155 23.7753 34.3855 24.1907 34.5255 24.564C34.6748 24.9373 34.9082 25.236 35.2255 25.46C35.5428 25.684 35.9488 25.796 36.4435 25.796ZM41.4933 27V19.622H42.8653L42.9353 20.658C43.122 20.3873 43.346 20.1727 43.6073 20.014C43.8687 19.846 44.1487 19.7247 44.4473 19.65C44.746 19.566 45.0353 19.524 45.3153 19.524C46.0247 19.524 46.58 19.678 46.9813 19.986C47.392 20.2847 47.6813 20.6907 47.8493 21.204C48.0267 21.708 48.1153 22.282 48.1153 22.926V27H46.6593V23.22C46.6593 22.9213 46.6407 22.6273 46.6033 22.338C46.566 22.0487 46.4867 21.792 46.3653 21.568C46.2533 21.3347 46.09 21.1527 45.8753 21.022C45.6607 20.882 45.3713 20.812 45.0073 20.812C44.5593 20.812 44.1813 20.9333 43.8733 21.176C43.5653 21.4187 43.332 21.7453 43.1733 22.156C43.0147 22.5667 42.9353 23.0287 42.9353 23.542V27H41.4933ZM53.1512 30.346C52.6285 30.346 52.1432 30.262 51.6952 30.094C51.2472 29.9353 50.8645 29.6787 50.5472 29.324C50.2392 28.9787 50.0292 28.5353 49.9172 27.994H51.4152C51.4805 28.246 51.6065 28.4467 51.7932 28.596C51.9798 28.7547 52.1992 28.8667 52.4512 28.932C52.7032 28.9973 52.9552 29.03 53.2072 29.03C53.6832 29.03 54.0658 28.932 54.3552 28.736C54.6445 28.54 54.8498 28.274 54.9712 27.938C55.1018 27.6113 55.1672 27.238 55.1672 26.818V25.964C55.0085 26.2347 54.7985 26.454 54.5372 26.622C54.2758 26.79 53.9958 26.9113 53.6972 26.986C53.4078 27.0513 53.1092 27.084 52.8012 27.084C52.0452 27.084 51.4292 26.916 50.9532 26.58C50.4772 26.244 50.1225 25.796 49.8892 25.236C49.6652 24.6667 49.5532 24.0367 49.5532 23.346C49.5532 22.6367 49.6698 21.9927 49.9032 21.414C50.1458 20.8353 50.5145 20.378 51.0092 20.042C51.5038 19.6967 52.1292 19.524 52.8852 19.524C53.3238 19.524 53.7485 19.6033 54.1592 19.762C54.5698 19.9113 54.9105 20.154 55.1812 20.49L55.2652 19.622H56.6232V26.65C56.6232 27.406 56.5018 28.0593 56.2592 28.61C56.0165 29.17 55.6385 29.5993 55.1252 29.898C54.6118 30.1967 53.9538 30.346 53.1512 30.346ZM53.0672 25.796C53.5338 25.796 53.9212 25.684 54.2292 25.46C54.5465 25.2267 54.7845 24.9187 54.9432 24.536C55.1018 24.1533 55.1812 23.7333 55.1812 23.276C55.1812 22.8093 55.1018 22.394 54.9432 22.03C54.7845 21.6567 54.5512 21.3627 54.2432 21.148C53.9352 20.9333 53.5385 20.826 53.0532 20.826C52.5492 20.826 52.1478 20.9427 51.8492 21.176C51.5505 21.4 51.3312 21.7033 51.1912 22.086C51.0605 22.4593 50.9952 22.8747 50.9952 23.332C50.9952 23.7987 51.0652 24.2187 51.2052 24.592C51.3452 24.9653 51.5645 25.2593 51.8632 25.474C52.1712 25.6887 52.5725 25.796 53.0672 25.796ZM62.2336 27V17.102H63.6756V27H62.2336ZM67.8121 27.084C67.4761 27.084 67.1495 27.042 66.8321 26.958C66.5241 26.8647 66.2488 26.7293 66.0061 26.552C65.7635 26.3653 65.5675 26.1367 65.4181 25.866C65.2781 25.586 65.2081 25.2593 65.2081 24.886C65.2081 24.438 65.2921 24.0693 65.4601 23.78C65.6375 23.4813 65.8708 23.2527 66.1601 23.094C66.4495 22.926 66.7808 22.8093 67.1541 22.744C67.5368 22.6693 67.9335 22.632 68.3441 22.632H70.1501C70.1501 22.268 70.0941 21.9507 69.9821 21.68C69.8701 21.4 69.6928 21.1853 69.4501 21.036C69.2168 20.8773 68.9041 20.798 68.5121 20.798C68.2788 20.798 68.0548 20.826 67.8401 20.882C67.6348 20.9287 67.4575 21.008 67.3081 21.12C67.1588 21.232 67.0561 21.3813 67.0001 21.568H65.4881C65.5441 21.2133 65.6701 20.91 65.8661 20.658C66.0621 20.3967 66.3048 20.182 66.5941 20.014C66.8835 19.846 67.1915 19.7247 67.5181 19.65C67.8541 19.566 68.1948 19.524 68.5401 19.524C69.6041 19.524 70.3695 19.8367 70.8361 20.462C71.3121 21.078 71.5501 21.9273 71.5501 23.01V27H70.3041L70.2481 26.062C70.0335 26.3513 69.7768 26.5707 69.4781 26.72C69.1888 26.8693 68.8995 26.9673 68.6101 27.014C68.3208 27.0607 68.0548 27.084 67.8121 27.084ZM68.0361 25.866C68.4561 25.866 68.8248 25.796 69.1421 25.656C69.4595 25.5067 69.7068 25.2967 69.8841 25.026C70.0615 24.746 70.1501 24.4193 70.1501 24.046V23.738H68.8341C68.5635 23.738 68.2975 23.7473 68.0361 23.766C67.7841 23.7753 67.5508 23.8127 67.3361 23.878C67.1308 23.934 66.9628 24.032 66.8321 24.172C66.7108 24.312 66.6501 24.5127 66.6501 24.774C66.6501 25.026 66.7155 25.2313 66.8461 25.39C66.9768 25.5487 67.1495 25.67 67.3641 25.754C67.5788 25.8287 67.8028 25.866 68.0361 25.866ZM77.0044 27.084C76.6964 27.084 76.4024 27.0513 76.1224 26.986C75.8518 26.9207 75.5951 26.818 75.3524 26.678C75.1191 26.5287 74.9091 26.3467 74.7224 26.132L74.6804 27H73.2804V17.102H74.7224V20.616C74.9838 20.2613 75.3338 19.9907 75.7724 19.804C76.2111 19.6173 76.6638 19.524 77.1304 19.524C77.8678 19.524 78.4744 19.692 78.9504 20.028C79.4264 20.3547 79.7764 20.8027 80.0004 21.372C80.2338 21.932 80.3504 22.5713 80.3504 23.29C80.3504 23.9993 80.2291 24.6433 79.9864 25.222C79.7438 25.7913 79.3751 26.244 78.8804 26.58C78.3951 26.916 77.7698 27.084 77.0044 27.084ZM76.8504 25.81C77.3638 25.81 77.7698 25.6933 78.0684 25.46C78.3671 25.2267 78.5818 24.9187 78.7124 24.536C78.8431 24.1533 78.9084 23.7427 78.9084 23.304C78.9084 22.8467 78.8384 22.4313 78.6984 22.058C78.5678 21.6847 78.3484 21.386 78.0404 21.162C77.7418 20.938 77.3404 20.826 76.8364 20.826C76.3791 20.826 75.9918 20.952 75.6744 21.204C75.3571 21.4467 75.1144 21.7593 74.9464 22.142C74.7878 22.5247 74.7084 22.9213 74.7084 23.332C74.7084 23.7613 74.7784 24.1673 74.9184 24.55C75.0678 24.9233 75.3011 25.2267 75.6184 25.46C75.9358 25.6933 76.3464 25.81 76.8504 25.81ZM85.087 27.084C84.3124 27.084 83.6637 26.9253 83.141 26.608C82.6184 26.2907 82.2217 25.852 81.951 25.292C81.6897 24.7227 81.559 24.0693 81.559 23.332C81.559 22.5853 81.6944 21.9273 81.965 21.358C82.245 20.7887 82.6464 20.3407 83.169 20.014C83.701 19.6873 84.3404 19.524 85.087 19.524C85.6564 19.524 86.151 19.6313 86.571 19.846C86.991 20.0513 87.3364 20.3313 87.607 20.686C87.887 21.0407 88.0924 21.4373 88.223 21.876C88.3537 22.3053 88.4097 22.7533 88.391 23.22C88.391 23.3227 88.3864 23.4207 88.377 23.514C88.3677 23.6073 88.3584 23.7053 88.349 23.808H83.015C83.043 24.1813 83.1364 24.522 83.295 24.83C83.463 25.138 83.6964 25.3853 83.995 25.572C84.2937 25.7493 84.6624 25.838 85.101 25.838C85.3437 25.838 85.577 25.81 85.801 25.754C86.0344 25.6887 86.2397 25.5907 86.417 25.46C86.6037 25.32 86.7344 25.1427 86.809 24.928H88.265C88.1437 25.4227 87.9244 25.8333 87.607 26.16C87.299 26.4773 86.921 26.7107 86.473 26.86C86.0344 27.0093 85.5724 27.084 85.087 27.084ZM83.043 22.66H86.963C86.9537 22.296 86.8697 21.974 86.711 21.694C86.5524 21.4047 86.333 21.1807 86.053 21.022C85.773 20.854 85.437 20.77 85.045 20.77C84.6157 20.77 84.2564 20.8587 83.967 21.036C83.687 21.2133 83.4677 21.4467 83.309 21.736C83.1597 22.016 83.071 22.324 83.043 22.66ZM89.8781 27V17.102H91.3201V27H89.8781Z" fill="#008FD2"/>
</svg>
