<svg width="32" height="32" viewBox="0 0 32 32" fill="none" xmlns="http://www.w3.org/2000/svg">
<rect width="32" height="32" rx="8" fill="white"/>
<path fill-rule="evenodd" clip-rule="evenodd" d="M6 17V13C6 10.1716 6 8.75736 6.87868 7.87868C7.75736 7 9.17157 7 12 7H20C22.8284 7 24.2426 7 25.1213 7.87868C26 8.75736 26 10.1716 26 13V17C26 19.8284 26 21.2426 25.1213 22.1213C24.4749 22.7677 23.5388 22.9386 21.963 22.9838C21.9593 22.248 21.7037 21.5132 21.1961 20.9176C21.1674 20.8839 21.1501 20.842 21.1465 20.7979C21.0211 19.2264 19.7733 17.9785 18.2018 17.8531C18.1577 17.8496 18.1158 17.8322 18.0821 17.8035C16.8822 16.781 15.1174 16.781 13.9176 17.8035C13.8839 17.8322 13.842 17.8496 13.7979 17.8531C12.2264 17.9785 10.9785 19.2264 10.8531 20.7979C10.8496 20.842 10.8322 20.8839 10.8035 20.9176C10.2959 21.5132 10.0403 22.248 10.0367 22.9838C8.4611 22.9386 7.52501 22.7677 6.87868 22.1213C6 21.2426 6 19.8284 6 17ZM12.25 11C12.25 10.5858 12.5858 10.25 13 10.25H19C19.4142 10.25 19.75 10.5858 19.75 11C19.75 11.4142 19.4142 11.75 19 11.75H13C12.5858 11.75 12.25 11.4142 12.25 11ZM11 13.75C10.5858 13.75 10.25 14.0858 10.25 14.5C10.25 14.9142 10.5858 15.25 11 15.25H21C21.4142 15.25 21.75 14.9142 21.75 14.5C21.75 14.0858 21.4142 13.75 21 13.75H11Z" fill="url(#paint0_linear_1107_1135)"/>
<path fill-rule="evenodd" clip-rule="evenodd" d="M17.1092 18.9452C16.4699 18.4004 15.5297 18.4004 14.8905 18.9452C14.6165 19.1786 14.276 19.3197 13.9172 19.3483C13.08 19.4152 12.4152 20.08 12.3483 20.9172C12.3197 21.276 12.1786 21.6165 11.9452 21.8905C11.4004 22.5297 11.4004 23.4699 11.9452 24.1092C12.1786 24.3831 12.3197 24.7237 12.3483 25.0824C12.4152 25.9197 13.08 26.5845 13.9172 26.6513C14.276 26.6799 14.6165 26.821 14.8905 27.0544C15.5297 27.5992 16.4699 27.5992 17.1092 27.0544C17.3831 26.821 17.7237 26.6799 18.0824 26.6513C18.9197 26.5845 19.5845 25.9197 19.6513 25.0824C19.6799 24.7237 19.821 24.3831 20.0544 24.1092C20.5992 23.4699 20.5992 22.5297 20.0544 21.8905C19.821 21.6165 19.6799 21.276 19.6513 20.9172C19.5845 20.08 18.9197 19.4152 18.0824 19.3483C17.7237 19.3197 17.3831 19.1786 17.1092 18.9452ZM18.0117 22.5483C18.3146 22.2657 18.3309 21.7911 18.0483 21.4883C17.7657 21.1855 17.2911 21.1691 16.9883 21.4517L15.3571 22.9741L15.0117 22.6517C14.7089 22.3691 14.2343 22.3855 13.9517 22.6883C13.6691 22.9911 13.6855 23.4657 13.9883 23.7483L14.8454 24.5483C15.1336 24.8172 15.5807 24.8172 15.8689 24.5483L18.0117 22.5483Z" fill="#15CDCA"/>
<defs>
<linearGradient id="paint0_linear_1107_1135" x1="26.4923" y1="23.4994" x2="5.86624" y2="6.99201" gradientUnits="userSpaceOnUse">
<stop stop-color="#15CDCA"/>
<stop offset="1" stop-color="#81ECEA"/>
</linearGradient>
</defs>
</svg>
