<svg width="36" height="36" viewBox="0 0 36 36" fill="none" xmlns="http://www.w3.org/2000/svg">
<path d="M16.125 18C16.125 16.9645 16.9645 16.125 18 16.125C19.0355 16.125 19.875 16.9645 19.875 18C19.875 19.0355 19.0355 19.875 18 19.875C16.9645 19.875 16.125 19.0355 16.125 18Z" fill="black"/>
<path fill-rule="evenodd" clip-rule="evenodd" d="M9.66663 18C9.66663 19.3662 10.0208 19.8262 10.729 20.7464C12.1433 22.5837 14.5151 24.6667 18 24.6667C21.4849 24.6667 23.8566 22.5837 25.2709 20.7464C25.9791 19.8262 26.3333 19.3662 26.3333 18C26.3333 16.6338 25.9791 16.1738 25.2709 15.2536C23.8566 13.4163 21.4849 11.3333 18 11.3333C14.5151 11.3333 12.1433 13.4163 10.729 15.2536C10.0208 16.1738 9.66663 16.6338 9.66663 18ZM18 14.875C16.2741 14.875 14.875 16.2741 14.875 18C14.875 19.7259 16.2741 21.125 18 21.125C19.7259 21.125 21.125 19.7259 21.125 18C21.125 16.2741 19.7259 14.875 18 14.875Z" fill="black"/>
</svg>
