<svg width="16" height="16" viewBox="0 0 16 16" fill="none" xmlns="http://www.w3.org/2000/svg">
<path d="M8 2C11.318 2 13.9999 4.68859 14 8C14 11.3127 11.3181 14 8 14C4.68799 13.9999 2 11.3126 2 8C2.00006 4.68863 4.68803 2.00006 8 2ZM8 9.75879C7.71204 9.75885 7.47852 9.99328 7.47852 10.2812C7.47878 10.569 7.71214 10.8085 8.00586 10.8086C8.2937 10.8086 8.52806 10.569 8.52832 10.2812C8.52832 9.99324 8.294 9.75879 8 9.75879ZM8 5.19824C7.71206 5.19832 7.47168 5.4392 7.47168 5.72656V8.37793C7.47168 8.66649 7.71206 8.90031 8 8.90039C8.288 8.90039 8.52246 8.66653 8.52246 8.37793V5.72656C8.52246 5.43916 8.288 5.19824 8 5.19824Z" fill="#F53F3F"/>
</svg>
