<svg width="20" height="20" viewBox="0 0 20 20" fill="none" xmlns="http://www.w3.org/2000/svg">
<path fill-rule="evenodd" clip-rule="evenodd" d="M10 20C12.6522 20 15.1957 18.9464 17.0711 17.0711C18.9464 15.1957 20 12.6522 20 10C20 7.34783 18.9464 4.8043 17.0711 2.92893C15.1957 1.05357 12.6522 0 10 0C7.34783 0 4.8043 1.05357 2.92893 2.92893C1.05357 4.8043 0 7.34783 0 10C0 12.6522 1.05357 15.1957 2.92893 17.0711C4.8043 18.9464 7.34783 20 10 20ZM7.85 6.525C7.67228 6.3594 7.43722 6.26925 7.19435 6.27353C6.95147 6.27782 6.71974 6.37621 6.54797 6.54797C6.37621 6.71974 6.27782 6.95147 6.27353 7.19435C6.26925 7.43722 6.3594 7.67228 6.525 7.85L8.675 10L6.525 12.15C6.43289 12.2358 6.35901 12.3393 6.30777 12.4543C6.25653 12.5693 6.22898 12.6935 6.22676 12.8193C6.22454 12.9452 6.24769 13.0703 6.29485 13.187C6.342 13.3037 6.41218 13.4098 6.5012 13.4988C6.59023 13.5878 6.69627 13.658 6.813 13.7052C6.92974 13.7523 7.05477 13.7755 7.18065 13.7732C7.30653 13.771 7.43067 13.7435 7.54567 13.6922C7.66067 13.641 7.76417 13.5671 7.85 13.475L10 11.325L12.15 13.475C12.2358 13.5671 12.3393 13.641 12.4543 13.6922C12.5693 13.7435 12.6935 13.771 12.8193 13.7732C12.9452 13.7755 13.0703 13.7523 13.187 13.7052C13.3037 13.658 13.4098 13.5878 13.4988 13.4988C13.5878 13.4098 13.658 13.3037 13.7052 13.187C13.7523 13.0703 13.7755 12.9452 13.7732 12.8193C13.771 12.6935 13.7435 12.5693 13.6922 12.4543C13.641 12.3393 13.5671 12.2358 13.475 12.15L11.325 10L13.475 7.85C13.6406 7.67228 13.7308 7.43722 13.7265 7.19435C13.7222 6.95147 13.6238 6.71974 13.452 6.54797C13.2803 6.37621 13.0485 6.27782 12.8057 6.27353C12.5628 6.26925 12.3277 6.3594 12.15 6.525L10 8.675L7.85 6.525Z" fill="#EAF0F6"/>
<path d="M7.85 6.525C7.67228 6.3594 7.43722 6.26925 7.19435 6.27353C6.95147 6.27782 6.71974 6.37621 6.54797 6.54797C6.37621 6.71974 6.27782 6.95147 6.27353 7.19435C6.26925 7.43722 6.3594 7.67228 6.525 7.85L8.675 10L6.525 12.15C6.43289 12.2358 6.35901 12.3393 6.30777 12.4543C6.25653 12.5693 6.22898 12.6935 6.22676 12.8193C6.22454 12.9452 6.24769 13.0703 6.29485 13.187C6.342 13.3037 6.41218 13.4098 6.5012 13.4988C6.59023 13.5878 6.69627 13.658 6.813 13.7052C6.92974 13.7523 7.05477 13.7755 7.18065 13.7732C7.30653 13.771 7.43067 13.7435 7.54567 13.6922C7.66067 13.641 7.76417 13.5671 7.85 13.475L10 11.325L12.15 13.475C12.2358 13.5671 12.3393 13.641 12.4543 13.6922C12.5693 13.7435 12.6935 13.771 12.8193 13.7732C12.9452 13.7755 13.0703 13.7523 13.187 13.7052C13.3037 13.658 13.4098 13.5878 13.4988 13.4988C13.5878 13.4098 13.658 13.3037 13.7052 13.187C13.7523 13.0703 13.7755 12.9452 13.7732 12.8193C13.771 12.6935 13.7435 12.5693 13.6922 12.4543C13.641 12.3393 13.5671 12.2358 13.475 12.15L11.325 10L13.475 7.85C13.6406 7.67228 13.7308 7.43722 13.7265 7.19435C13.7222 6.95147 13.6238 6.71974 13.452 6.54797C13.2803 6.37621 13.0485 6.27782 12.8057 6.27353C12.5628 6.26925 12.3277 6.3594 12.15 6.525L10 8.675L7.85 6.525Z" fill="#A1B0CA"/>
</svg>
