<svg width="36" height="36" viewBox="0 0 36 36" fill="none" xmlns="http://www.w3.org/2000/svg">
<rect x="8" y="8" width="20" height="20" rx="10" fill="#EAF0F6"/>
<path d="M17.6639 21.0954L21.3333 17.4259C20.8339 17.2181 20.2424 16.8766 19.683 16.3172C19.1235 15.7577 18.782 15.1661 18.5741 14.6667L14.9046 18.3362C14.6183 18.6225 14.4751 18.7657 14.352 18.9235C14.2067 19.1098 14.0822 19.3113 13.9806 19.5245C13.8944 19.7052 13.8304 19.8973 13.7023 20.2815L13.027 22.3075C12.964 22.4965 13.0132 22.7049 13.1541 22.8459C13.295 22.9868 13.5035 23.036 13.6925 22.973L15.7185 22.2976C16.1027 22.1696 16.2948 22.1056 16.4755 22.0194C16.6887 21.9178 16.8902 21.7933 17.0765 21.648C17.2343 21.5249 17.3775 21.3817 17.6639 21.0954Z" fill="#A1B0CA"/>
<path d="M22.3685 16.6803C23.2104 15.8384 23.2104 14.4733 22.3685 13.6314C21.5265 12.7895 20.1615 12.7895 19.3195 13.6314L18.8333 14.1177C18.8399 14.1378 18.8468 14.1582 18.854 14.1789C19.0322 14.6927 19.3686 15.3662 20.0012 15.9988C20.6339 16.6315 21.3074 16.9678 21.8212 17.146C21.8418 17.1532 21.8621 17.16 21.8821 17.1667L22.3685 16.6803Z" fill="#A1B0CA"/>
</svg>
